<svg width="51" height="51" viewBox="0 0 51 51" fill="none" xmlns="http://www.w3.org/2000/svg">
<path d="M25.5023 0C11.477 0 0 11.534 0 25.629C0 38.3168 9.18065 48.8236 21.2924 51L21.4417 50.8734C21.4417 50.8734 21.4277 50.8734 21.4184 50.8734V32.8055H15.0428V25.629H21.4184V19.991C21.4184 13.5837 25.4977 9.99549 31.3645 9.99549C33.1474 9.99549 35.1917 10.2535 36.9747 10.5068V17.0407H33.6608C30.5991 17.0407 29.8336 18.5791 29.8336 20.6289V25.6243H36.5919L35.4438 32.8008H29.8336V50.8687C29.7543 50.8827 29.6749 50.8921 29.5956 50.9062L29.7076 50.9953C41.8193 48.8189 51 38.3075 51 25.6243C51.0047 11.534 39.5277 0 25.5023 0Z" fill="white"/>
</svg>
