<svg width="50" height="50" viewBox="0 0 50 50" fill="none" xmlns="http://www.w3.org/2000/svg">
<path d="M25 0C18.2086 0 17.3573 0.0280665 14.6913 0.149687C12.0299 0.271307 10.2151 0.692301 8.62488 1.30976C6.97848 1.9506 5.58466 2.80195 4.19551 4.19122C2.80636 5.5805 1.95042 6.97446 1.30963 8.62101C0.687553 10.2114 0.266601 12.0311 0.149669 14.688C0.0280599 17.3543 0 18.2056 0 24.9977C0 31.7897 0.0280599 32.6364 0.149669 35.3073C0.271278 37.9689 0.69223 39.7839 1.30963 41.3743C1.95042 43.0209 2.80168 44.4148 4.19083 45.8041C5.57998 47.1934 6.9738 48.0494 8.6202 48.6902C10.2105 49.3077 12.0299 49.7287 14.6913 49.8503C17.3573 49.9719 18.2086 50 25 50C31.7914 50 32.638 49.9719 35.3087 49.8503C37.9701 49.7287 39.7895 49.3077 41.3798 48.6902C43.0215 48.0494 44.4153 47.1934 45.8045 45.8041C47.1936 44.4148 48.0496 43.0209 48.6904 41.3743C49.3031 39.7839 49.7287 37.9643 49.8503 35.3073C49.9719 32.641 50 31.7897 50 24.9977C50 18.2056 49.9673 17.3543 49.8503 14.688C49.724 12.0264 49.3031 10.2114 48.6904 8.62101C48.0496 6.97446 47.1936 5.5805 45.8045 4.19122C44.4153 2.80195 43.0215 1.94593 41.3751 1.30976C39.7802 0.692301 37.9654 0.271307 35.304 0.149687C32.638 0.0280665 31.7867 0 24.9953 0H25.0047H25ZM22.7549 4.50463C23.4191 4.50463 24.1628 4.50463 25 4.50463C31.6745 4.50463 32.4649 4.52802 35.1029 4.64964C37.5398 4.7619 38.8634 5.16887 39.7428 5.51034C40.9074 5.96408 41.7399 6.50669 42.6146 7.38142C43.4892 8.25615 44.0318 9.08878 44.4855 10.2582C44.8269 11.1376 45.2339 12.4614 45.3461 14.8985C45.4677 17.532 45.4911 18.3273 45.4911 24.9977C45.4911 31.6681 45.4631 32.4633 45.3461 35.0968C45.2339 37.5339 44.8269 38.8577 44.4855 39.7371C44.0318 40.9019 43.4892 41.7345 42.6146 42.6092C41.7399 43.484 40.9074 44.0266 39.7428 44.4803C38.8634 44.8218 37.5398 45.2287 35.1029 45.341C32.4696 45.4626 31.6745 45.486 25 45.486C18.3255 45.486 17.5351 45.4579 14.8971 45.341C12.4602 45.2287 11.1366 44.8218 10.2526 44.4803C9.08793 44.0266 8.2507 43.484 7.37605 42.6092C6.5014 41.7345 5.95884 40.9019 5.50514 39.7371C5.1637 38.8577 4.75678 37.5339 4.64452 35.0968C4.52292 32.4633 4.49953 31.6681 4.49953 24.993C4.49953 18.3179 4.52292 17.5274 4.64452 14.8938C4.75678 12.4567 5.1637 11.1329 5.50514 10.2535C5.95884 9.08878 6.5014 8.25147 7.37605 7.37674C8.2507 6.50201 9.08325 5.9594 10.2526 5.50566C11.1319 5.16419 12.4556 4.75723 14.8971 4.64496C17.203 4.54205 18.0963 4.50931 22.7549 4.50463ZM38.3442 8.66311C36.6885 8.66311 35.3461 10.0056 35.3461 11.6615C35.3461 13.3174 36.6885 14.6599 38.3442 14.6599C40 14.6599 41.3424 13.3174 41.3424 11.6615C41.3424 10.0056 40 8.66311 38.3442 8.66311ZM25 12.1714C17.9093 12.1714 12.1609 17.9203 12.1609 25.0117C12.1609 32.1031 17.9093 37.8473 25 37.8473C32.0907 37.8473 37.8391 32.0984 37.8391 25.0117C37.8391 17.925 32.0907 12.1714 25 12.1714ZM25 16.676C29.6024 16.676 33.3349 20.4088 33.3349 25.0117C33.3349 29.6146 29.6024 33.3474 25 33.3474C20.3976 33.3474 16.6651 29.6146 16.6651 25.0117C16.6651 20.4088 20.3976 16.676 25 16.676Z" fill="white"/>
</svg>
