<svg xmlns="http://www.w3.org/2000/svg" viewBox="0 0 203.35 64.17"><defs><style>.cls-1,.cls-2{fill:#fff;}.cls-1{fill-rule:evenodd;}</style></defs><g id="Layer_2" data-name="Layer 2"><g id="Layer_1-2" data-name="Layer 1"><path class="cls-1" d="M122.46,21a10.46,10.46,0,0,1-.32,2.83,6.13,6.13,0,0,1-2,3.2q-1.56,1.44-5,1.52a7.45,7.45,0,0,1-3.86-.83,3.61,3.61,0,0,1-1.66-3.36,3.91,3.91,0,0,1,1.62-3.43A9.35,9.35,0,0,1,115,19.55l4.23-.65a6.89,6.89,0,0,0,3.26-1.26V21ZM110.65,11a5.11,5.11,0,0,1,1.82-3.81A6.68,6.68,0,0,1,116.62,6a8.31,8.31,0,0,1,4.11.77c1.11.57,1.69,1.8,1.73,3.68s-1.18,2.81-3.26,3.23-4.54.77-7.41,1.08a23.4,23.4,0,0,0-5.37,1.28,9,9,0,0,0-4.13,3,9.3,9.3,0,0,0-1.66,5.71q.12,5,3.25,7.44a12.52,12.52,0,0,0,7.91,2.39,18.55,18.55,0,0,0,6-.91,12.5,12.5,0,0,0,5.1-3.14,10.8,10.8,0,0,0,.22,1.6,14.83,14.83,0,0,0,.41,1.56h9.13a8.51,8.51,0,0,1-.88-3,31.7,31.7,0,0,1-.26-4.27V9.32a7.92,7.92,0,0,0-2.28-5.91A11.52,11.52,0,0,0,123.71.67,29.7,29.7,0,0,0,117.07,0a24.48,24.48,0,0,0-7.16,1,12.48,12.48,0,0,0-5.68,3.41,10.45,10.45,0,0,0-2.58,6.6Z"/><path class="cls-1" d="M203.3,19.48A22.54,22.54,0,0,0,201.94,10a15.71,15.71,0,0,0-5.33-7.14A15.42,15.42,0,0,0,187.37,0a17,17,0,0,0-8.77,2.31,15.73,15.73,0,0,0-5.85,6.15,18.86,18.86,0,0,0-2.13,8.86q.07,7.75,4.5,12.44t12.25,4.82A16.3,16.3,0,0,0,196.88,32q3.93-2.66,5.85-8.43H194.8a5.54,5.54,0,0,1-2.41,2.89,8.73,8.73,0,0,1-4.7,1.37,7.86,7.86,0,0,1-5.82-2q-2-2-2.24-6.3Zm-23.67-5.71a8.1,8.1,0,0,1,.73-2.94A6.81,6.81,0,0,1,182.67,8a7.58,7.58,0,0,1,4.45-1.24A6.47,6.47,0,0,1,192,8.56a9.87,9.87,0,0,1,2.25,5.21Z"/><path class="cls-1" d="M134.8,45.24h9V29.64h.12a10.72,10.72,0,0,0,4.26,3.68,12.62,12.62,0,0,0,5.59,1.26,13.38,13.38,0,0,0,8-2.44,14.67,14.67,0,0,0,4.8-6.21,21.27,21.27,0,0,0,1.61-8.29,23.16,23.16,0,0,0-1.58-8.72,14.36,14.36,0,0,0-4.9-6.42A14.21,14.21,0,0,0,153.27,0a12.68,12.68,0,0,0-5.61,1.23,10.35,10.35,0,0,0-4.17,3.84h-.13V.89H134.8V45.24ZM151.36,27.8q-4.32-.15-6.13-3.21a13.5,13.5,0,0,1-1.74-7.2,17.08,17.08,0,0,1,.71-5.12,8.4,8.4,0,0,1,2.45-3.92,7.59,7.59,0,0,1,9.26,0,8.68,8.68,0,0,1,2.51,3.95,16.27,16.27,0,0,1,.75,5.06,13.67,13.67,0,0,1-1.69,7.2q-1.75,3.06-6.12,3.21Z"/><path class="cls-2" d="M98.6,12.44a12.57,12.57,0,0,0-2.54-6.95,13.39,13.39,0,0,0-5.57-4.13A19.61,19.61,0,0,0,83.17,0q-8,.15-12.37,5.05c-2.89,3.27-4.34,7.51-4.38,12.72q.12,7.5,4.57,12.1t12,4.71a16.32,16.32,0,0,0,10.71-3.46q4.17-3.44,5.1-10h-8.7A8.26,8.26,0,0,1,87.86,26a6.86,6.86,0,0,1-4.94,1.83,6.37,6.37,0,0,1-4.45-1.64,8.78,8.78,0,0,1-2.35-3.94,16.19,16.19,0,0,1-.69-4.77,16.53,16.53,0,0,1,.71-4.91,9.15,9.15,0,0,1,2.41-4.06,6.5,6.5,0,0,1,4.56-1.69,6.75,6.75,0,0,1,4.52,1.44,6.6,6.6,0,0,1,2.14,4.21Z"/><path class="cls-2" d="M34.12,23a11.06,11.06,0,0,0,2.47,6.85,12.14,12.14,0,0,0,5.65,3.63,23.23,23.23,0,0,0,7.3,1.06,23.33,23.33,0,0,0,7.21-1A11.8,11.8,0,0,0,62.3,30a10.34,10.34,0,0,0,2.21-6.79c-.1-3-1.18-5.12-3.22-6.44A20.19,20.19,0,0,0,54.11,14c-2.68-.53-5-1.09-7-1.68S44,10.62,43.89,9.07a2.59,2.59,0,0,1,1.74-2.52A8.63,8.63,0,0,1,48.9,6a8.06,8.06,0,0,1,4.2.92,4.18,4.18,0,0,1,2,3.53h8.57a10.75,10.75,0,0,0-2.47-6.3A11.21,11.21,0,0,0,55.94.93,22.5,22.5,0,0,0,49.16,0a24.67,24.67,0,0,0-6.84.87A10.92,10.92,0,0,0,37,4.08a9.6,9.6,0,0,0-2.14,6.45,7,7,0,0,0,1.54,4.59,10,10,0,0,0,3.85,2.68,29.42,29.42,0,0,0,5,1.49,44.46,44.46,0,0,1,7.54,2c1.77.71,2.67,1.72,2.69,3a3.61,3.61,0,0,1-2,3.29,8.22,8.22,0,0,1-3.93.9,8.39,8.39,0,0,1-4.77-1.28A5,5,0,0,1,42.68,23Z"/><path class="cls-1" d="M32.68,19.48A22.54,22.54,0,0,0,31.31,10,15.64,15.64,0,0,0,26,2.81,15.41,15.41,0,0,0,16.75,0,16.93,16.93,0,0,0,8,2.31,15.59,15.59,0,0,0,2.13,8.46,18.62,18.62,0,0,0,0,17.32q.08,7.75,4.5,12.44t12.25,4.82A16.3,16.3,0,0,0,26.26,32q3.91-2.66,5.85-8.43H24.17a5.49,5.49,0,0,1-2.41,2.89,8.7,8.7,0,0,1-4.69,1.37,7.83,7.83,0,0,1-5.82-2q-2-2-2.25-6.3ZM9,13.77a8.31,8.31,0,0,1,.73-2.94A6.81,6.81,0,0,1,12,8a7.63,7.63,0,0,1,4.45-1.24,6.44,6.44,0,0,1,4.92,1.77,9.8,9.8,0,0,1,2.26,5.21Z"/><path class="cls-1" d="M9.58,53.3a7.35,7.35,0,0,1-.34,2.28,3.74,3.74,0,0,1-1.15,1.75A3.45,3.45,0,0,1,5.92,58a3.66,3.66,0,0,1-2.22-.66,3.68,3.68,0,0,1-1.23-1.69,6.79,6.79,0,0,1,0-4.48,3.78,3.78,0,0,1,1.2-1.7,3.38,3.38,0,0,1,2.16-.69,3.6,3.6,0,0,1,2.13.66,3.9,3.9,0,0,1,1.24,1.66,5.86,5.86,0,0,1,.4,2.18ZM.15,64.17h2V57.88H2.2A3.92,3.92,0,0,0,4,59.37a5.51,5.51,0,0,0,2.1.41,5.37,5.37,0,0,0,3.09-.87,5.27,5.27,0,0,0,1.85-2.29,7.93,7.93,0,0,0,.62-3.17,8,8,0,0,0-.62-3.19,5.44,5.44,0,0,0-1.87-2.33A5.4,5.4,0,0,0,6.09,47a5.54,5.54,0,0,0-2.33.46A3.19,3.19,0,0,0,2.2,49H2.15V47.32h-2V64.17Z"/><polygon class="cls-2" points="14.16 59.5 16.16 59.5 16.16 42.68 14.16 42.68 14.16 59.5 14.16 59.5"/><path class="cls-1" d="M27.66,55.64a2.9,2.9,0,0,1-1.1,1.78,3.38,3.38,0,0,1-2.06.6,3.64,3.64,0,0,1-2.92-1.21A4.07,4.07,0,0,1,20.7,54h9.12a9,9,0,0,0-.42-3.12,5.87,5.87,0,0,0-1.72-2.7A5,5,0,0,0,24.31,47a5.4,5.4,0,0,0-4.11,1.8,6.65,6.65,0,0,0-1.61,4.53A7.42,7.42,0,0,0,20.09,58a5.39,5.39,0,0,0,4.34,1.8,5.41,5.41,0,0,0,3.42-1.06,5.08,5.08,0,0,0,1.79-3.08Zm-7-3.39a4,4,0,0,1,1-2.42,3.32,3.32,0,0,1,2.48-1,3.46,3.46,0,0,1,2.47,1,3.74,3.74,0,0,1,1.05,2.44Z"/><path class="cls-2" d="M31.57,55.66a3.85,3.85,0,0,0,1.6,3.19,6.16,6.16,0,0,0,3.56.93,8,8,0,0,0,2.45-.35,4.26,4.26,0,0,0,1.94-1.2,3.37,3.37,0,0,0,.8-2.28,2.9,2.9,0,0,0-.59-1.85,3.7,3.7,0,0,0-1.47-1.05,11.29,11.29,0,0,0-1.92-.57l-1.87-.43a5.21,5.21,0,0,1-1.5-.6A1.29,1.29,0,0,1,34,50.36a1.32,1.32,0,0,1,.85-1.24,4.31,4.31,0,0,1,1.74-.32,3.71,3.71,0,0,1,1.86.44,2,2,0,0,1,1,1.61h2a3.59,3.59,0,0,0-1.55-3A6.33,6.33,0,0,0,36.38,47a6.41,6.41,0,0,0-2.12.35,4,4,0,0,0-1.72,1.12,3,3,0,0,0-.71,2,2.86,2.86,0,0,0,.59,1.83,3.78,3.78,0,0,0,1.48,1,11.45,11.45,0,0,0,1.91.57c.68.14,1.32.29,1.93.44a4.16,4.16,0,0,1,1.47.65,1.4,1.4,0,0,1,.59,1.17,1.53,1.53,0,0,1-.49,1.16,2.51,2.51,0,0,1-1.14.53,6,6,0,0,1-1.32.13,4.43,4.43,0,0,1-2.23-.51,2.15,2.15,0,0,1-1-1.85Z"/><path class="cls-2" d="M44.11,59.5h2V52.62A4,4,0,0,1,47,49.89a3.45,3.45,0,0,1,2.71-1.09,2.29,2.29,0,0,1,2.48,2.45V59.5h2v-8a5,5,0,0,0-.89-3.21A4,4,0,0,0,50,47a4.82,4.82,0,0,0-2.32.54A4.12,4.12,0,0,0,46,49.25h0V47.32H44.11V59.5Z"/><path class="cls-1" d="M57.32,59.5h2V47.32h-2V59.5Zm2-16.82h-2v2.45h2V42.68Z"/><path class="cls-2" d="M68.18,55.66a3.85,3.85,0,0,0,1.6,3.19,6.16,6.16,0,0,0,3.56.93,8,8,0,0,0,2.45-.35,4.26,4.26,0,0,0,1.94-1.2A3.32,3.32,0,0,0,78.52,56a2.84,2.84,0,0,0-.58-1.85,3.7,3.7,0,0,0-1.47-1.05,11.68,11.68,0,0,0-1.93-.57l-1.86-.43a5.21,5.21,0,0,1-1.5-.6,1.27,1.27,0,0,1-.62-1.09,1.3,1.3,0,0,1,.85-1.24,4.31,4.31,0,0,1,1.74-.32,3.71,3.71,0,0,1,1.86.44,2,2,0,0,1,1,1.61h2a3.59,3.59,0,0,0-1.55-3,7.35,7.35,0,0,0-5.56-.44,4,4,0,0,0-1.72,1.12,3,3,0,0,0-.71,2A2.81,2.81,0,0,0,69,52.33a3.78,3.78,0,0,0,1.48,1,11.45,11.45,0,0,0,1.91.57c.68.14,1.32.29,1.93.44a4.16,4.16,0,0,1,1.47.65,1.43,1.43,0,0,1,.59,1.17,1.53,1.53,0,0,1-.49,1.16,2.51,2.51,0,0,1-1.14.53,6,6,0,0,1-1.32.13,4.43,4.43,0,0,1-2.23-.51,2.15,2.15,0,0,1-1-1.85Z"/><path class="cls-2" d="M83.56,43.67h-2v3.65H79.48v1.77h2.08v7.75A2.63,2.63,0,0,0,82.23,59a3.42,3.42,0,0,0,2.22.49H86V57.74h-.92a2.34,2.34,0,0,1-1.22-.2,1,1,0,0,1-.28-.89V49.09H86V47.32H83.56V43.67Z"/><path class="cls-1" d="M112.23,42.68h-2v6.26h0a3.89,3.89,0,0,0-1.83-1.49,5.78,5.78,0,0,0-2.1-.41,5.4,5.4,0,0,0-3.1.88,5.26,5.26,0,0,0-1.85,2.28,8.55,8.55,0,0,0,0,6.37,5.12,5.12,0,0,0,5,3.21,5.51,5.51,0,0,0,2.33-.46,3.14,3.14,0,0,0,1.56-1.47h0V59.5h2V42.68ZM102.8,53.52a7.35,7.35,0,0,1,.34-2.28,3.73,3.73,0,0,1,1.15-1.74,3.4,3.4,0,0,1,2.17-.7,3.71,3.71,0,0,1,2.22.67,3.65,3.65,0,0,1,1.24,1.69,6.38,6.38,0,0,1,.38,2.26,6.45,6.45,0,0,1-.37,2.21,3.79,3.79,0,0,1-1.19,1.71,3.48,3.48,0,0,1-2.16.68,3.42,3.42,0,0,1-2.13-.66,3.74,3.74,0,0,1-1.24-1.66,5.87,5.87,0,0,1-.41-2.18Z"/><path class="cls-1" d="M115.42,59.5h2V47.32h-2V59.5Zm2-16.82h-2v2.45h2V42.68Z"/><path class="cls-1" d="M119.85,53.42a7.61,7.61,0,0,0,.67,3.23,5.31,5.31,0,0,0,2,2.28,6.64,6.64,0,0,0,6.5,0,5.31,5.31,0,0,0,2-2.28,7.47,7.47,0,0,0,.68-3.23,7.59,7.59,0,0,0-.68-3.25,5.34,5.34,0,0,0-2-2.27,6.57,6.57,0,0,0-6.5,0,5.34,5.34,0,0,0-2,2.27,7.74,7.74,0,0,0-.67,3.25Zm2.12,0A5.06,5.06,0,0,1,123.08,50a3.6,3.6,0,0,1,5.37,0,5.81,5.81,0,0,1,0,6.83,3.62,3.62,0,0,1-5.37,0A5.05,5.05,0,0,1,122,53.42Z"/><path class="cls-2" d="M98.52,47.32h-2V54.2a4.09,4.09,0,0,1-.89,2.73A3.48,3.48,0,0,1,92.91,58a2.47,2.47,0,0,1-1.81-.67,2.4,2.4,0,0,1-.66-1.78V47.32h-2v8a5,5,0,0,0,.89,3.21,4,4,0,0,0,3.3,1.24A4.63,4.63,0,0,0,95,59.24a4.25,4.25,0,0,0,1.64-1.67h0V59.5h1.88V47.32Z"/></g></g></svg>