<?xml version="1.0" encoding="utf-8"?>
<!-- Generator: Adobe Illustrator 25.1.0, SVG Export Plug-In . SVG Version: 6.00 Build 0)  -->
<svg version="1.1" id="Layer_1" xmlns="http://www.w3.org/2000/svg" xmlns:xlink="http://www.w3.org/1999/xlink" x="0px" y="0px"
	 viewBox="0 0 43 46" style="enable-background:new 0 0 43 46;" xml:space="preserve">
<style type="text/css">
	.st0{fill:#3DAD6A;}
</style>
<path class="st0" d="M21.2,44.5L9.5,32.7c-6.4-6.5-6.4-17.1,0-23.6c3.1-3.2,7.3-4.9,11.7-4.9c0,0,0,0,0,0c4.4,0,8.5,1.7,11.7,4.9
	c6.4,6.5,6.4,17.1,0,23.6L21.2,44.5z M21.2,7.2c-3.6,0-7,1.4-9.5,4c-5.3,5.3-5.3,14,0,19.4l9.5,9.7l9.5-9.7c5.3-5.3,5.3-14,0-19.4v0
	C28.1,8.6,24.8,7.2,21.2,7.2z"/>
<path class="st0" d="M21.2,26.3c-3,0-5.4-2.4-5.4-5.4s2.4-5.4,5.4-5.4s5.4,2.4,5.4,5.4S24.1,26.3,21.2,26.3z M21.2,18.5
	c-1.3,0-2.4,1.1-2.4,2.4s1.1,2.4,2.4,2.4c1.3,0,2.4-1.1,2.4-2.4S22.5,18.5,21.2,18.5z"/>
</svg>
