<svg width="26" height="20" viewBox="0 0 26 20" fill="none" xmlns="http://www.w3.org/2000/svg">
<path d="M23.155 0H2.84498C1.26444 0 0 1.20527 0 2.71186V17.3258C0 18.7947 1.26444 20.0377 2.84498 20.0377H23.155C24.696 20.0377 26 18.8324 26 17.3258V2.71186C26 1.20527 24.696 0 23.155 0ZM22.6809 1.88324L13.4347 11.0734C13.1976 11.2994 12.7629 11.2994 12.5258 11.0734L3.31915 1.88324H22.6809ZM23.155 18.1168H2.84498C2.37082 18.1168 1.97568 17.7778 1.97568 17.3258V3.27684L11.1033 12.3917C11.617 12.8814 12.2492 13.145 13 13.145C13.7508 13.145 14.383 12.8814 14.8967 12.3917L24.0243 3.27684V17.3258C24.0243 17.7778 23.6292 18.1168 23.155 18.1168Z" fill="#797979"/>
</svg>
