<svg width="71" height="85" viewBox="0 0 71 85" fill="none" xmlns="http://www.w3.org/2000/svg">
<g clip-path="url(#clip0_72_3250)">
<path d="M11.473 71.7422V53.0264H18.3238C19.3407 53.0264 20.3095 53.1321 21.2319 53.3435C22.1528 53.5357 22.9599 53.8817 23.6501 54.3798C24.3403 54.8603 24.888 55.5026 25.2915 56.3082C25.7143 57.0947 25.9241 58.0749 25.9241 59.2458C25.9241 60.3974 25.7127 61.3856 25.2915 62.2105C24.888 63.0354 24.3419 63.7177 23.6501 64.2543C22.9599 64.7732 22.1624 65.1656 21.2608 65.4347C20.3592 65.6846 19.4192 65.8095 18.4391 65.8095H16.4245V71.7422H11.473ZM16.4245 61.895H18.2085C19.1869 61.895 19.9076 61.6643 20.3672 61.2046C20.8476 60.7433 21.0862 60.0914 21.0862 59.2474C21.0862 58.4033 20.8268 57.8074 20.3095 57.4631C19.7907 57.1171 19.0524 56.9441 18.0932 56.9441H16.4245V61.895Z" fill="#3DAD6A"/>
<path d="M28.9747 71.7422V53.0264H34.5012C35.9216 53.0264 37.2172 53.1993 38.3878 53.5453C39.5777 53.8913 40.5946 54.4375 41.4385 55.1871C42.2824 55.935 42.9358 56.8961 43.3954 58.0669C43.8758 59.2377 44.1144 60.6488 44.1144 62.2986C44.1144 63.9483 43.8838 65.369 43.4242 66.5591C42.963 67.7491 42.3113 68.7278 41.4673 69.4966C40.6426 70.2638 39.6545 70.8308 38.5031 71.196C37.3709 71.5612 36.133 71.7438 34.7894 71.7438H28.9747V71.7422ZM33.9263 67.7684H34.2145C34.8855 67.7684 35.5197 67.6915 36.1138 67.5377C36.7079 67.3647 37.2172 67.0764 37.64 66.6744C38.0819 66.2708 38.4262 65.715 38.6761 65.0038C38.9259 64.2943 39.0508 63.3909 39.0508 62.297C39.0508 61.203 38.9259 60.3109 38.6761 59.6189C38.4262 58.9286 38.0819 58.3904 37.64 58.006C37.2172 57.6216 36.7095 57.3638 36.1138 57.2292C35.5197 57.0755 34.8855 56.9986 34.2145 56.9986H33.9263V67.7684Z" fill="#3DAD6A"/>
<path d="M47.4566 71.7422V53.0264H59.6625V57.1716H52.4082V60.7417H58.6264V64.8869H52.4082V71.7422H47.4566Z" fill="#3DAD6A"/>
<path d="M68.1122 22.4655L48.7097 2.64067C47.0695 0.965328 44.8012 0.0229492 42.4632 0.0229492H8.96233C4.32107 0.0229492 0.517334 3.82737 0.517334 8.46946V76.4953C0.517334 81.1723 4.32107 84.9418 8.96233 84.9418H62.1449C66.821 84.9418 70.5899 81.1374 70.5899 76.4953V28.5735C70.6248 26.27 69.7175 24.106 68.1122 22.4655ZM46.5112 8.88829L61.2376 23.8966H46.5112V8.88829ZM62.1449 79.0432H8.96233C7.56646 79.0432 6.44977 77.9263 6.44977 76.5302V8.46946C6.44977 7.07334 7.56646 5.95645 8.96233 5.95645H40.5787V29.83H64.6923V76.4953C64.6923 77.9263 63.5408 79.0432 62.1449 79.0432Z" fill="#3DAD6A"/>
</g>
<defs>
<clipPath id="clip0_72_3250">
<rect width="70.1074" height="84.9537" fill="white" transform="translate(0.517334 0.0229492)"/>
</clipPath>
</defs>
</svg>
