<svg width="43" height="42" viewBox="0 0 43 42" fill="none" xmlns="http://www.w3.org/2000/svg">
<path d="M35.4404 1.07059H7.57629C4.37874 1.07059 1.78662 3.66271 1.78662 6.86025V34.7243C1.78662 37.9219 4.37874 40.514 7.57629 40.514H35.4404C38.6379 40.514 41.23 37.9219 41.23 34.7243V6.86025C41.23 3.66271 38.6379 1.07059 35.4404 1.07059Z" stroke="white" stroke-width="3.54325" stroke-miterlimit="10"/>
<path d="M30.9473 16.2499C33.4873 16.2499 35.5464 14.1908 35.5464 11.6507C35.5464 9.11069 33.4873 7.05159 30.9473 7.05159C28.4072 7.05159 26.3481 9.11069 26.3481 11.6507C26.3481 14.1908 28.4072 16.2499 30.9473 16.2499Z" stroke="white" stroke-width="3.54325" stroke-miterlimit="10"/>
<path d="M1.78662 25.2922C1.78662 25.2922 5.92513 18.2978 13.6778 17.823C25.5689 17.086 37.0419 26.6103 41.23 37.6652" stroke="white" stroke-width="3.54325" stroke-miterlimit="10"/>
</svg>
