<svg width="18" height="28" viewBox="0 0 18 28" fill="none" xmlns="http://www.w3.org/2000/svg">
<g clip-path="url(#clip0_63_2338)">
<path d="M13.8234 28H4.17659C1.88501 28 0 26.1061 0 23.8037V4.19629C0 1.8939 1.88501 0 4.17659 0H13.8234C16.115 0 18 1.8939 18 4.19629V23.8037C18 26.1061 16.115 28 13.8234 28ZM4.17659 1.85676C2.88296 1.85676 1.84805 2.89655 1.84805 4.19629V23.8037C1.84805 25.1034 2.88296 26.1432 4.17659 26.1432H13.8234C15.117 26.1432 16.152 25.1034 16.152 23.8037V4.19629C16.152 2.89655 15.117 1.85676 13.8234 1.85676H4.17659Z" fill="#797979"/>
<path d="M8.9815 5.01317C9.55307 5.01317 10.0164 4.54764 10.0164 3.97338C10.0164 3.39912 9.55307 2.93359 8.9815 2.93359C8.40994 2.93359 7.94659 3.39912 7.94659 3.97338C7.94659 4.54764 8.40994 5.01317 8.9815 5.01317Z" fill="#797979"/>
</g>
<defs>
<clipPath id="clip0_63_2338">
<rect width="18" height="28" fill="white"/>
</clipPath>
</defs>
</svg>
